<svg width="60" height="72" viewBox="0 0 60 72" fill="none" xmlns="http://www.w3.org/2000/svg">
<rect x="10" y="16" width="40" height="40" rx="20" fill="#F0F0F1"/>
<path fill-rule="evenodd" clip-rule="evenodd" d="M24.2423 32.9001C24.621 34.0611 25.7125 34.9001 27 34.9001C28.2874 34.9001 29.3789 34.0611 29.7576 32.9001C32.5051 32.9001 35.2525 32.9001 38 32.9001C38.497 32.9001 38.9 32.4972 38.9 32.0001C38.9 31.503 38.497 31.1001 38 31.1001C35.2525 31.1001 32.5051 31.1001 29.7576 31.1001C29.7479 31.0697 29.7609 31.1102 29.7576 31.1001C29.3789 29.9391 28.2874 29.1001 27 29.1001C25.7125 29.1001 24.621 29.9391 24.2423 31.1001C23.4949 31.1001 22.7474 31.1001 22 31.1001C21.5029 31.1001 21.1 31.503 21.1 32.0001C21.1 32.4972 21.5029 32.9001 22 32.9001C22.7474 32.9001 23.4949 32.9001 24.2423 32.9001ZM27 30.9001C26.3925 30.9001 25.9 31.3926 25.9 32.0001C25.9 32.6076 26.3925 33.1001 27 33.1001C27.6075 33.1001 28.1 32.6076 28.1 32.0001C28.1 31.3926 27.6075 30.9001 27 30.9001Z" fill="#508AD2"/>
<path fill-rule="evenodd" clip-rule="evenodd" d="M21.1 40.0001C21.1 39.503 21.5029 39.1001 22 39.1001C24.7474 39.1001 27.4949 39.1001 30.2423 39.1001C30.621 37.9391 31.7125 37.1001 33 37.1001C34.2874 37.1001 35.3789 37.9391 35.7576 39.1001C35.7576 39.1001 37.4786 39.1001 38 39.1001C38.497 39.1001 38.9 39.503 38.9 40.0001C38.9 40.4972 38.497 40.9001 38 40.9001C37.7777 40.9001 35.7576 40.9001 35.7576 40.9001C35.3789 42.0611 34.2874 42.9001 33 42.9001C31.7125 42.9001 30.621 42.0611 30.2423 40.9001C27.4949 40.9001 24.7474 40.9001 22 40.9001C21.5029 40.9001 21.1 40.4972 21.1 40.0001ZM31.9 40.0001C31.9 39.3926 32.3925 38.9001 33 38.9001C33.6075 38.9001 34.1 39.3926 34.1 40.0001C34.1 40.6076 33.6075 41.1001 33 41.1001C32.3925 41.1001 31.9 40.6076 31.9 40.0001Z" fill="#508AD2"/>
</svg>
