<svg width="268" height="238" viewBox="0 0 268 238" fill="none" xmlns="http://www.w3.org/2000/svg">
    <g clip-path="url(#clip0_1306_1076)">
        <path fill-rule="evenodd" clip-rule="evenodd" d="M268 174C268 177.313 265.313 180 262 180H6C2.687 180 0 177.313 0 174V6C0 2.687 2.687 0 6 0H262C265.313 0 268 2.687 268 6V174Z" fill="#333333"/>
        <path d="M182 184H87V225H182V184Z" fill="#333333"/>
        <path fill-rule="evenodd" clip-rule="evenodd" d="M214 234C214 236.209 212.209 238 210 238H57C54.791 238 53 236.209 53 234V233C53 230.791 54.791 229 57 229H210C212.209 229 214 230.791 214 233V234Z" fill="#333333"/>
        <path d="M256 14H11V164H256V14Z" fill="white"/>
        <path d="M214 104H53V134H214V104Z" fill="#2688EB"/>
        <path d="M114 129C119.523 129 124 124.523 124 119C124 113.477 119.523 109 114 109C108.477 109 104 113.477 104 119C104 124.523 108.477 129 114 129Z" stroke="white" stroke-width="2" stroke-miterlimit="10"/>
        <path d="M111.292 123.901V114.664L119.292 119.282L111.292 123.901Z" fill="white"/>
        <path d="M131.248 114.6H132.244V123H131.248V114.6ZM138.268 123V119.58C138.268 118.956 138.176 118.488 137.992 118.176C137.816 117.856 137.488 117.696 137.008 117.696C136.584 117.696 136.232 117.812 135.952 118.044C135.68 118.268 135.488 118.552 135.376 118.896V123H134.416V117H135.088L135.268 117.732H135.316C135.508 117.476 135.764 117.268 136.084 117.108C136.412 116.94 136.8 116.856 137.248 116.856C137.576 116.856 137.864 116.896 138.112 116.976C138.36 117.048 138.564 117.18 138.724 117.372C138.892 117.564 139.016 117.824 139.096 118.152C139.184 118.472 139.228 118.88 139.228 119.376V123H138.268ZM141.075 114.684C141.379 114.612 141.707 114.564 142.059 114.54C142.411 114.516 142.759 114.504 143.103 114.504C143.471 114.504 143.843 114.54 144.219 114.612C144.603 114.684 144.951 114.816 145.263 115.008C145.575 115.2 145.827 115.464 146.019 115.8C146.219 116.136 146.319 116.564 146.319 117.084C146.319 117.596 146.227 118.028 146.043 118.38C145.859 118.732 145.615 119.02 145.311 119.244C145.007 119.46 144.659 119.616 144.267 119.712C143.875 119.808 143.471 119.856 143.055 119.856C143.015 119.856 142.947 119.856 142.851 119.856C142.763 119.856 142.667 119.856 142.563 119.856C142.467 119.848 142.371 119.84 142.275 119.832C142.179 119.824 142.111 119.816 142.071 119.808V123H141.075V114.684ZM143.127 115.368C142.919 115.368 142.719 115.372 142.527 115.38C142.335 115.388 142.183 115.408 142.071 115.44V118.92C142.111 118.936 142.175 118.948 142.263 118.956C142.351 118.956 142.443 118.96 142.539 118.968C142.635 118.968 142.727 118.968 142.815 118.968C142.903 118.968 142.967 118.968 143.007 118.968C143.279 118.968 143.547 118.944 143.811 118.896C144.083 118.84 144.327 118.744 144.543 118.608C144.759 118.472 144.931 118.28 145.059 118.032C145.195 117.784 145.263 117.468 145.263 117.084C145.263 116.756 145.199 116.484 145.071 116.268C144.951 116.044 144.787 115.868 144.579 115.74C144.379 115.604 144.151 115.508 143.895 115.452C143.639 115.396 143.383 115.368 143.127 115.368ZM147.164 117.444C147.468 117.26 147.82 117.124 148.22 117.036C148.628 116.948 149.052 116.904 149.492 116.904C149.908 116.904 150.24 116.96 150.488 117.072C150.744 117.184 150.936 117.332 151.064 117.516C151.2 117.692 151.288 117.888 151.328 118.104C151.376 118.32 151.4 118.536 151.4 118.752C151.4 119.232 151.388 119.7 151.364 120.156C151.34 120.612 151.328 121.044 151.328 121.452C151.328 121.748 151.34 122.028 151.364 122.292C151.388 122.556 151.432 122.8 151.496 123.024H150.788L150.536 122.184H150.476C150.404 122.296 150.312 122.408 150.2 122.52C150.096 122.624 149.968 122.72 149.816 122.808C149.664 122.888 149.488 122.956 149.288 123.012C149.088 123.068 148.86 123.096 148.604 123.096C148.348 123.096 148.108 123.056 147.884 122.976C147.668 122.896 147.48 122.784 147.32 122.64C147.16 122.488 147.032 122.308 146.936 122.1C146.848 121.892 146.804 121.656 146.804 121.392C146.804 121.04 146.876 120.748 147.02 120.516C147.164 120.276 147.364 120.088 147.62 119.952C147.884 119.808 148.196 119.708 148.556 119.652C148.924 119.588 149.328 119.556 149.768 119.556C149.88 119.556 149.988 119.556 150.092 119.556C150.204 119.556 150.316 119.564 150.428 119.58C150.452 119.34 150.464 119.124 150.464 118.932C150.464 118.492 150.376 118.184 150.2 118.008C150.024 117.832 149.704 117.744 149.24 117.744C149.104 117.744 148.956 117.756 148.796 117.78C148.644 117.796 148.484 117.824 148.316 117.864C148.156 117.896 148 117.94 147.848 117.996C147.704 118.044 147.576 118.1 147.464 118.164L147.164 117.444ZM148.868 122.256C149.092 122.256 149.292 122.228 149.468 122.172C149.644 122.108 149.796 122.032 149.924 121.944C150.052 121.848 150.156 121.744 150.236 121.632C150.324 121.52 150.388 121.412 150.428 121.308V120.312C150.316 120.304 150.2 120.3 150.08 120.3C149.968 120.292 149.856 120.288 149.744 120.288C149.496 120.288 149.252 120.304 149.012 120.336C148.78 120.36 148.572 120.412 148.388 120.492C148.212 120.564 148.068 120.668 147.956 120.804C147.852 120.932 147.8 121.096 147.8 121.296C147.8 121.576 147.9 121.808 148.1 121.992C148.3 122.168 148.556 122.256 148.868 122.256ZM157.809 123.276C157.809 124.052 157.601 124.624 157.185 124.992C156.777 125.36 156.169 125.544 155.361 125.544C154.881 125.544 154.493 125.512 154.197 125.448C153.909 125.392 153.661 125.316 153.453 125.22L153.705 124.404C153.889 124.476 154.093 124.544 154.317 124.608C154.541 124.672 154.833 124.704 155.193 124.704C155.529 124.704 155.801 124.672 156.009 124.608C156.225 124.552 156.397 124.452 156.525 124.308C156.653 124.172 156.741 123.992 156.789 123.768C156.837 123.552 156.861 123.292 156.861 122.988V122.412H156.813C156.653 122.644 156.449 122.824 156.201 122.952C155.953 123.072 155.629 123.132 155.229 123.132C154.421 123.132 153.825 122.88 153.441 122.376C153.065 121.872 152.877 121.088 152.877 120.024C152.877 119 153.121 118.224 153.609 117.696C154.097 117.16 154.817 116.892 155.769 116.892C156.225 116.892 156.613 116.928 156.933 117C157.261 117.072 157.553 117.156 157.809 117.252V123.276ZM155.397 122.292C155.805 122.292 156.125 122.192 156.357 121.992C156.589 121.784 156.753 121.464 156.849 121.032V117.96C156.529 117.808 156.121 117.732 155.625 117.732C155.081 117.732 154.653 117.916 154.341 118.284C154.029 118.652 153.873 119.228 153.873 120.012C153.873 120.348 153.901 120.656 153.957 120.936C154.013 121.216 154.101 121.456 154.221 121.656C154.341 121.856 154.497 122.012 154.689 122.124C154.881 122.236 155.117 122.292 155.397 122.292ZM164.038 122.52C163.798 122.712 163.494 122.864 163.126 122.976C162.766 123.088 162.382 123.144 161.974 123.144C161.518 123.144 161.122 123.072 160.786 122.928C160.45 122.776 160.174 122.564 159.958 122.292C159.742 122.012 159.582 121.68 159.478 121.296C159.374 120.912 159.322 120.48 159.322 120C159.322 118.976 159.55 118.196 160.006 117.66C160.462 117.124 161.114 116.856 161.962 116.856C162.234 116.856 162.506 116.888 162.778 116.952C163.05 117.008 163.294 117.12 163.51 117.288C163.726 117.456 163.902 117.696 164.038 118.008C164.174 118.312 164.242 118.716 164.242 119.22C164.242 119.484 164.218 119.776 164.17 120.096H160.318C160.318 120.448 160.354 120.76 160.426 121.032C160.498 121.304 160.61 121.536 160.762 121.728C160.914 121.912 161.11 122.056 161.35 122.16C161.598 122.256 161.898 122.304 162.25 122.304C162.522 122.304 162.794 122.256 163.066 122.16C163.338 122.064 163.542 121.952 163.678 121.824L164.038 122.52ZM161.974 117.696C161.502 117.696 161.122 117.82 160.834 118.068C160.554 118.316 160.386 118.74 160.33 119.34H163.306C163.306 118.732 163.19 118.308 162.958 118.068C162.726 117.82 162.398 117.696 161.974 117.696Z" fill="white"/>
        <rect x="54" y="14" width="161" height="80" fill="#EBEDF0"/>
        <rect x="53" y="144" width="161" height="20" fill="#EBEDF0"/>
    </g>
    <defs>
        <clipPath id="clip0_1306_1076">
            <rect width="268" height="238" fill="white"/>
        </clipPath>
    </defs>
</svg>
